# xmcd
#
# Track frame offsets:
#	150
#	10345
#	19580
#	31486
#	45389
#	58460
#	71407
#	84521
#	96077
#	112935
#
# Disc length: 1700 seconds
# Revision: 0
# Processed by: cddbd v1.5.2PL0 Copyright (c) Steve Scherf et al.
# Submitted via: dBpowerAMP V12.0
#
DISCID=7706a20a
DTITLE=Various Artist - Men of country CD1
DYEAR=2005
DGENRE=Vocal
TTITLE0=Faron Young - Live fast, love hard, die young
TTITLE1=Johnny Paycheck - Mr. Lovemaker
TTITLE2=Conway Twitty - You made me what I am
TTITLE3=Moe Bandy - I cheated me right of you
TTITLE4=Kenny Rogers - Ruby, don't take your love to town
TTITLE5=T.G. Sheppard - Devil in the bottle
TTITLE6=Willie Nelson - You'll always have someone
TTITLE7=Don Gibson - I can't stop loving you
TTITLE8=Ferlin Husky - For the good times
TTITLE9=Porter Wagoner - Green green grass of home
EXTD=
EXTT0=
EXTT1=
EXTT2=
EXTT3=
EXTT4=
EXTT5=
EXTT6=
EXTT7=
EXTT8=
EXTT9=
PLAYORDER=
